<svg xmlns="http://www.w3.org/2000/svg" width="1200" height="620" viewBox="0 0 1200 620">
<defs><linearGradient id="bg" x1="0" y1="0" x2="1" y2="1"><stop stop-color="#11131a"/><stop offset="1" stop-color="#22263a"/></linearGradient></defs>
<rect width="1200" height="620" rx="28" fill="url(#bg)"/>
<text x="56" y="62" fill="#baff2a" font-size="18" font-family="monospace" font-weight="700">CUPID ERRANDS · VERIFIED TEST MATRIX</text>
<text x="56" y="104" fill="#fff" font-size="34" font-family="Arial,sans-serif" font-weight="700">End-to-end route validation</text>
<text x="56" y="137" fill="#bfc3d8" font-size="16" font-family="Arial,sans-serif">Each department was tested independently from Gmail intake to departmental delivery and processed-state update.</text>
<g font-family="Arial,sans-serif" font-size="16">
<g transform="translate(56 180)"><rect width="1088" height="58" rx="12" fill="#17291d" stroke="#3f8b55"/><text x="24" y="36" fill="#fff" font-weight="700">Sales</text><text x="270" y="36" fill="#c9f7d2">Gmail → AI classification → Sales email → Sales Slack → Mark Processed</text><text x="1010" y="36" fill="#baff2a" font-weight="700">PASS</text></g>
<g transform="translate(56 248)"><rect width="1088" height="58" rx="12" fill="#17291d" stroke="#3f8b55"/><text x="24" y="36" fill="#fff" font-weight="700">Logistics</text><text x="270" y="36" fill="#c9f7d2">Gmail → AI classification → Logistics email → Logistics Slack → Mark Processed</text><text x="1010" y="36" fill="#baff2a" font-weight="700">PASS</text></g>
<g transform="translate(56 316)"><rect width="1088" height="58" rx="12" fill="#17291d" stroke="#3f8b55"/><text x="24" y="36" fill="#fff" font-weight="700">Billing</text><text x="270" y="36" fill="#c9f7d2">Gmail → AI classification → Billing email → Billing Slack → Mark Processed</text><text x="1010" y="36" fill="#baff2a" font-weight="700">PASS</text></g>
<g transform="translate(56 384)"><rect width="1088" height="58" rx="12" fill="#17291d" stroke="#3f8b55"/><text x="24" y="36" fill="#fff" font-weight="700">Customer Support</text><text x="270" y="36" fill="#c9f7d2">Gmail → AI classification → Support email → Support Slack → Mark Processed</text><text x="1010" y="36" fill="#baff2a" font-weight="700">PASS</text></g>
<g transform="translate(56 452)"><rect width="1088" height="58" rx="12" fill="#17291d" stroke="#3f8b55"/><text x="24" y="36" fill="#fff" font-weight="700">Office / Admin</text><text x="270" y="36" fill="#c9f7d2">Gmail → AI classification → Office/Admin email → Office/Admin Slack → Mark Processed</text><text x="1010" y="36" fill="#baff2a" font-weight="700">PASS</text></g>
</g>
<g transform="translate(56 536)" font-family="Arial,sans-serif" font-size="14"><rect width="340" height="46" rx="10" fill="#28233f" stroke="#7867c9"/><text x="20" y="29" fill="#fff">Ambiguous request → Office/Admin fallback ✓</text><rect x="366" width="330" height="46" rx="10" fill="#28233f" stroke="#7867c9"/><text x="386" y="29" fill="#fff">Duplicate message → blocked before AI ✓</text><rect x="722" width="366" height="46" rx="10" fill="#28233f" stroke="#7867c9"/><text x="742" y="29" fill="#fff">Gemini 503 → retry handling configured ✓</text></g>
</svg>